<svg width="152" height="32" viewBox="0 0 152 32" fill="none" xmlns="http://www.w3.org/2000/svg">
<path d="M45.824 19.52H40.96L40.064 22H38.528L42.56 10.912H44.24L48.256 22H46.72L45.824 19.52ZM45.408 18.336L43.392 12.704L41.376 18.336H45.408ZM49.4693 17.584C49.4693 16.688 49.6506 15.904 50.0133 15.232C50.3759 14.5493 50.8719 14.0213 51.5013 13.648C52.1413 13.2747 52.8559 13.088 53.6453 13.088C54.3279 13.088 54.9626 13.248 55.5493 13.568C56.1359 13.8773 56.5839 14.288 56.8933 14.8V10.16H58.3653V22H56.8933V20.352C56.6053 20.8747 56.1786 21.3067 55.6133 21.648C55.0479 21.9787 54.3866 22.144 53.6293 22.144C52.8506 22.144 52.1413 21.952 51.5013 21.568C50.8719 21.184 50.3759 20.6453 50.0133 19.952C49.6506 19.2587 49.4693 18.4693 49.4693 17.584ZM56.8933 17.6C56.8933 16.9387 56.7599 16.3627 56.4933 15.872C56.2266 15.3813 55.8639 15.008 55.4053 14.752C54.9573 14.4853 54.4613 14.352 53.9173 14.352C53.3733 14.352 52.8773 14.48 52.4293 14.736C51.9813 14.992 51.6239 15.3653 51.3573 15.856C51.0906 16.3467 50.9573 16.9227 50.9573 17.584C50.9573 18.256 51.0906 18.8427 51.3573 19.344C51.6239 19.8347 51.9813 20.2133 52.4293 20.48C52.8773 20.736 53.3733 20.864 53.9173 20.864C54.4613 20.864 54.9573 20.736 55.4053 20.48C55.8639 20.2133 56.2266 19.8347 56.4933 19.344C56.7599 18.8427 56.8933 18.2613 56.8933 17.6ZM61.5778 11.808C61.3004 11.808 61.0658 11.712 60.8738 11.52C60.6818 11.328 60.5858 11.0933 60.5858 10.816C60.5858 10.5387 60.6818 10.304 60.8738 10.112C61.0658 9.92 61.3004 9.824 61.5778 9.824C61.8444 9.824 62.0684 9.92 62.2498 10.112C62.4418 10.304 62.5378 10.5387 62.5378 10.816C62.5378 11.0933 62.4418 11.328 62.2498 11.52C62.0684 11.712 61.8444 11.808 61.5778 11.808ZM62.2818 13.232V22H60.8258V13.232H62.2818ZM68.0273 20.656L70.7473 13.232H72.2993L68.8593 22H67.1633L63.7233 13.232H65.2913L68.0273 20.656ZM77.556 22.144C76.7347 22.144 75.988 21.9573 75.316 21.584C74.6547 21.2107 74.132 20.6827 73.748 20C73.3747 19.3067 73.188 18.5067 73.188 17.6C73.188 16.704 73.38 15.9147 73.764 15.232C74.1587 14.5387 74.692 14.0107 75.364 13.648C76.036 13.2747 76.788 13.088 77.62 13.088C78.452 13.088 79.204 13.2747 79.876 13.648C80.548 14.0107 81.076 14.5333 81.46 15.216C81.8547 15.8987 82.052 16.6933 82.052 17.6C82.052 18.5067 81.8493 19.3067 81.444 20C81.0493 20.6827 80.5107 21.2107 79.828 21.584C79.1453 21.9573 78.388 22.144 77.556 22.144ZM77.556 20.864C78.0787 20.864 78.5693 20.7413 79.028 20.496C79.4867 20.2507 79.8547 19.8827 80.132 19.392C80.42 18.9013 80.564 18.304 80.564 17.6C80.564 16.896 80.4253 16.2987 80.148 15.808C79.8707 15.3173 79.508 14.9547 79.06 14.72C78.612 14.4747 78.1267 14.352 77.604 14.352C77.0707 14.352 76.58 14.4747 76.132 14.72C75.6947 14.9547 75.3427 15.3173 75.076 15.808C74.8093 16.2987 74.676 16.896 74.676 17.6C74.676 18.3147 74.804 18.9173 75.06 19.408C75.3267 19.8987 75.6787 20.2667 76.116 20.512C76.5533 20.7467 77.0333 20.864 77.556 20.864ZM87.5824 13.088C88.3397 13.088 89.001 13.2533 89.5664 13.584C90.1424 13.9147 90.569 14.3307 90.8464 14.832V13.232H92.3184V22.192C92.3184 22.992 92.1477 23.7013 91.8064 24.32C91.465 24.9493 90.9744 25.44 90.3344 25.792C89.705 26.144 88.969 26.32 88.1264 26.32C86.9744 26.32 86.0144 26.048 85.2464 25.504C84.4784 24.96 84.025 24.2187 83.8864 23.28H85.3264C85.4864 23.8133 85.817 24.24 86.3184 24.56C86.8197 24.8907 87.4224 25.056 88.1264 25.056C88.9264 25.056 89.577 24.8053 90.0784 24.304C90.5904 23.8027 90.8464 23.0987 90.8464 22.192V20.352C90.5584 20.864 90.1317 21.2907 89.5664 21.632C89.001 21.9733 88.3397 22.144 87.5824 22.144C86.8037 22.144 86.0944 21.952 85.4544 21.568C84.825 21.184 84.329 20.6453 83.9664 19.952C83.6037 19.2587 83.4224 18.4693 83.4224 17.584C83.4224 16.688 83.6037 15.904 83.9664 15.232C84.329 14.5493 84.825 14.0213 85.4544 13.648C86.0944 13.2747 86.8037 13.088 87.5824 13.088ZM90.8464 17.6C90.8464 16.9387 90.713 16.3627 90.4464 15.872C90.1797 15.3813 89.817 15.008 89.3584 14.752C88.9104 14.4853 88.4144 14.352 87.8704 14.352C87.3264 14.352 86.8304 14.48 86.3824 14.736C85.9344 14.992 85.577 15.3653 85.3104 15.856C85.0437 16.3467 84.9104 16.9227 84.9104 17.584C84.9104 18.256 85.0437 18.8427 85.3104 19.344C85.577 19.8347 85.9344 20.2133 86.3824 20.48C86.8304 20.736 87.3264 20.864 87.8704 20.864C88.4144 20.864 88.9104 20.736 89.3584 20.48C89.817 20.2133 90.1797 19.8347 90.4464 19.344C90.713 18.8427 90.8464 18.2613 90.8464 17.6ZM94.2349 17.584C94.2349 16.688 94.4162 15.904 94.7789 15.232C95.1415 14.5493 95.6375 14.0213 96.2669 13.648C96.9069 13.2747 97.6162 13.088 98.3949 13.088C99.1629 13.088 99.8295 13.2533 100.395 13.584C100.96 13.9147 101.382 14.3307 101.659 14.832V13.232H103.131V22H101.659V20.368C101.371 20.88 100.939 21.3067 100.363 21.648C99.7975 21.9787 99.1362 22.144 98.3789 22.144C97.6002 22.144 96.8962 21.952 96.2669 21.568C95.6375 21.184 95.1415 20.6453 94.7789 19.952C94.4162 19.2587 94.2349 18.4693 94.2349 17.584ZM101.659 17.6C101.659 16.9387 101.526 16.3627 101.259 15.872C100.992 15.3813 100.63 15.008 100.171 14.752C99.7229 14.4853 99.2269 14.352 98.6829 14.352C98.1389 14.352 97.6429 14.48 97.1949 14.736C96.7469 14.992 96.3895 15.3653 96.1229 15.856C95.8562 16.3467 95.7229 16.9227 95.7229 17.584C95.7229 18.256 95.8562 18.8427 96.1229 19.344C96.3895 19.8347 96.7469 20.2133 97.1949 20.48C97.6429 20.736 98.1389 20.864 98.6829 20.864C99.2269 20.864 99.7229 20.736 100.171 20.48C100.63 20.2133 100.992 19.8347 101.259 19.344C101.526 18.8427 101.659 18.2613 101.659 17.6ZM105.047 17.584C105.047 16.688 105.229 15.904 105.591 15.232C105.954 14.5493 106.45 14.0213 107.079 13.648C107.719 13.2747 108.434 13.088 109.223 13.088C109.906 13.088 110.541 13.248 111.127 13.568C111.714 13.8773 112.162 14.288 112.471 14.8V10.16H113.943V22H112.471V20.352C112.183 20.8747 111.757 21.3067 111.191 21.648C110.626 21.9787 109.965 22.144 109.207 22.144C108.429 22.144 107.719 21.952 107.079 21.568C106.45 21.184 105.954 20.6453 105.591 19.952C105.229 19.2587 105.047 18.4693 105.047 17.584ZM112.471 17.6C112.471 16.9387 112.338 16.3627 112.071 15.872C111.805 15.3813 111.442 15.008 110.983 14.752C110.535 14.4853 110.039 14.352 109.495 14.352C108.951 14.352 108.455 14.48 108.007 14.736C107.559 14.992 107.202 15.3653 106.935 15.856C106.669 16.3467 106.535 16.9227 106.535 17.584C106.535 18.256 106.669 18.8427 106.935 19.344C107.202 19.8347 107.559 20.2133 108.007 20.48C108.455 20.736 108.951 20.864 109.495 20.864C110.039 20.864 110.535 20.736 110.983 20.48C111.442 20.2133 111.805 19.8347 112.071 19.344C112.338 18.8427 112.471 18.2613 112.471 17.6ZM120.228 22.144C119.407 22.144 118.66 21.9573 117.988 21.584C117.327 21.2107 116.804 20.6827 116.42 20C116.047 19.3067 115.86 18.5067 115.86 17.6C115.86 16.704 116.052 15.9147 116.436 15.232C116.831 14.5387 117.364 14.0107 118.036 13.648C118.708 13.2747 119.46 13.088 120.292 13.088C121.124 13.088 121.876 13.2747 122.548 13.648C123.22 14.0107 123.748 14.5333 124.132 15.216C124.527 15.8987 124.724 16.6933 124.724 17.6C124.724 18.5067 124.521 19.3067 124.116 20C123.721 20.6827 123.183 21.2107 122.5 21.584C121.817 21.9573 121.06 22.144 120.228 22.144ZM120.228 20.864C120.751 20.864 121.241 20.7413 121.7 20.496C122.159 20.2507 122.527 19.8827 122.804 19.392C123.092 18.9013 123.236 18.304 123.236 17.6C123.236 16.896 123.097 16.2987 122.82 15.808C122.543 15.3173 122.18 14.9547 121.732 14.72C121.284 14.4747 120.799 14.352 120.276 14.352C119.743 14.352 119.252 14.4747 118.804 14.72C118.367 14.9547 118.015 15.3173 117.748 15.808C117.481 16.2987 117.348 16.896 117.348 17.6C117.348 18.3147 117.476 18.9173 117.732 19.408C117.999 19.8987 118.351 20.2667 118.788 20.512C119.225 20.7467 119.705 20.864 120.228 20.864ZM129.742 22.144C129.07 22.144 128.468 22.032 127.934 21.808C127.401 21.5733 126.98 21.2533 126.67 20.848C126.361 20.432 126.19 19.9573 126.158 19.424H127.662C127.705 19.8613 127.908 20.2187 128.27 20.496C128.644 20.7733 129.129 20.912 129.726 20.912C130.281 20.912 130.718 20.7893 131.038 20.544C131.358 20.2987 131.518 19.9893 131.518 19.616C131.518 19.232 131.348 18.9493 131.006 18.768C130.665 18.576 130.137 18.3893 129.422 18.208C128.772 18.0373 128.238 17.8667 127.822 17.696C127.417 17.5147 127.065 17.2533 126.766 16.912C126.478 16.56 126.334 16.1013 126.334 15.536C126.334 15.088 126.468 14.6773 126.734 14.304C127.001 13.9307 127.38 13.6373 127.87 13.424C128.361 13.2 128.921 13.088 129.55 13.088C130.521 13.088 131.305 13.3333 131.902 13.824C132.5 14.3147 132.82 14.9867 132.862 15.84H131.406C131.374 15.3813 131.188 15.0133 130.846 14.736C130.516 14.4587 130.068 14.32 129.502 14.32C128.98 14.32 128.564 14.432 128.254 14.656C127.945 14.88 127.79 15.1733 127.79 15.536C127.79 15.824 127.881 16.064 128.062 16.256C128.254 16.4373 128.489 16.5867 128.766 16.704C129.054 16.8107 129.449 16.9333 129.95 17.072C130.58 17.2427 131.092 17.4133 131.486 17.584C131.881 17.744 132.217 17.9893 132.494 18.32C132.782 18.6507 132.932 19.0827 132.942 19.616C132.942 20.096 132.809 20.528 132.542 20.912C132.276 21.296 131.897 21.6 131.406 21.824C130.926 22.0373 130.372 22.144 129.742 22.144ZM135.462 22.096C135.184 22.096 134.95 22 134.758 21.808C134.566 21.616 134.47 21.3813 134.47 21.104C134.47 20.8267 134.566 20.592 134.758 20.4C134.95 20.208 135.184 20.112 135.462 20.112C135.728 20.112 135.952 20.208 136.134 20.4C136.326 20.592 136.422 20.8267 136.422 21.104C136.422 21.3813 136.326 21.616 136.134 21.808C135.952 22 135.728 22.096 135.462 22.096ZM139.109 11.808C138.832 11.808 138.597 11.712 138.405 11.52C138.213 11.328 138.117 11.0933 138.117 10.816C138.117 10.5387 138.213 10.304 138.405 10.112C138.597 9.92 138.832 9.824 139.109 9.824C139.376 9.824 139.6 9.92 139.781 10.112C139.973 10.304 140.069 10.5387 140.069 10.816C140.069 11.0933 139.973 11.328 139.781 11.52C139.6 11.712 139.376 11.808 139.109 11.808ZM139.813 13.232V22H138.357V13.232H139.813ZM146.119 22.144C145.297 22.144 144.551 21.9573 143.879 21.584C143.217 21.2107 142.695 20.6827 142.311 20C141.937 19.3067 141.751 18.5067 141.751 17.6C141.751 16.704 141.943 15.9147 142.327 15.232C142.721 14.5387 143.255 14.0107 143.927 13.648C144.599 13.2747 145.351 13.088 146.183 13.088C147.015 13.088 147.767 13.2747 148.439 13.648C149.111 14.0107 149.639 14.5333 150.023 15.216C150.417 15.8987 150.615 16.6933 150.615 17.6C150.615 18.5067 150.412 19.3067 150.007 20C149.612 20.6827 149.073 21.2107 148.391 21.584C147.708 21.9573 146.951 22.144 146.119 22.144ZM146.119 20.864C146.641 20.864 147.132 20.7413 147.591 20.496C148.049 20.2507 148.417 19.8827 148.695 19.392C148.983 18.9013 149.127 18.304 149.127 17.6C149.127 16.896 148.988 16.2987 148.711 15.808C148.433 15.3173 148.071 14.9547 147.623 14.72C147.175 14.4747 146.689 14.352 146.167 14.352C145.633 14.352 145.143 14.4747 144.695 14.72C144.257 14.9547 143.905 15.3173 143.639 15.808C143.372 16.2987 143.239 16.896 143.239 17.6C143.239 18.3147 143.367 18.9173 143.623 19.408C143.889 19.8987 144.241 20.2667 144.679 20.512C145.116 20.7467 145.596 20.864 146.119 20.864Z" fill="black"/>
<path d="M28.8706 16.3156C28.7456 16.0181 28.4512 15.8262 28.1412 15.7225L16.4425 11.0675C16.1541 10.9775 15.8452 10.9775 15.5568 11.0675L3.86934 15.725C3.55684 15.8225 3.25497 16.0231 3.13122 16.3206C3.00747 16.6181 2.94747 16.9062 3.06872 17.2631L5.97684 24.71C6.01391 24.8016 6.0791 24.879 6.16301 24.9311C6.24692 24.9832 6.34521 25.0073 6.44372 25C8.11184 24.895 9.58809 24.0481 10.7175 22.9687C10.8062 22.8853 10.9235 22.8389 11.0453 22.8389C11.1671 22.8389 11.2843 22.8853 11.3731 22.9687C12.5806 24.125 14.1875 25 16 25C17.8125 25 19.41 24.125 20.6175 22.9662C20.7063 22.8828 20.8237 22.8363 20.9456 22.8363C21.0675 22.8363 21.1848 22.8828 21.2737 22.9662C22.4031 24.0462 23.8793 24.895 25.5475 25C25.6457 25.0074 25.7437 24.9836 25.8275 24.9318C25.9113 24.88 25.9765 24.803 26.0137 24.7119L28.9325 17.2644C29.0562 16.9656 28.9943 16.6137 28.8706 16.3156Z" stroke="black" stroke-width="2" stroke-miterlimit="10"/>
<path d="M26.0001 29.5712C26.0001 29.4945 25.9794 29.4192 25.9402 29.3532C25.9011 29.2872 25.8449 29.233 25.7776 29.1962C24.0851 28.2868 22.542 26.895 21.8632 26.1962C21.7624 26.0905 21.6278 26.0232 21.4827 26.006C21.3376 25.9887 21.191 26.0226 21.0682 26.1018C17.9226 28.1281 14.0926 28.1293 10.9463 26.105C10.8225 26.025 10.6745 25.9909 10.5281 26.0087C10.3817 26.0266 10.2462 26.0951 10.1451 26.2025C9.47196 26.9075 7.94571 28.2837 6.24321 29.1868C6.17567 29.2211 6.11792 29.2719 6.07539 29.3345C6.03287 29.3971 6.00695 29.4696 6.00008 29.545C5.99501 29.6092 6.00477 29.6738 6.0286 29.7336C6.05243 29.7935 6.08971 29.8471 6.13754 29.8903C6.18538 29.9335 6.2425 29.9651 6.30449 29.9827C6.36648 30.0003 6.43169 30.0034 6.49508 29.9918C7.79821 29.7306 9.05758 29.1368 10.2576 28.5025C10.3346 28.4619 10.4201 28.4404 10.5071 28.4398C10.5941 28.4391 10.68 28.4593 10.7576 28.4987C12.3827 29.3256 14.1803 29.7568 16.0037 29.757C17.8271 29.7572 19.6248 29.3265 21.2501 28.5C21.3285 28.4602 21.4154 28.4398 21.5034 28.4405C21.5913 28.4411 21.6778 28.4628 21.7557 28.5037C22.9495 29.1287 24.207 29.7281 25.5057 29.9912C25.5669 30.0026 25.6298 30.0003 25.69 29.9844C25.7501 29.9685 25.806 29.9394 25.8535 29.8993C25.9011 29.8592 25.9391 29.809 25.9649 29.7523C25.9907 29.6957 26.0035 29.6341 26.0026 29.5718L26.0001 29.5712Z" fill="black"/>
<path d="M20 6V4.5C19.9988 4.10253 19.8404 3.72167 19.5594 3.44061C19.2783 3.15956 18.8975 3.00115 18.5 3H13.5C13.1025 3.00115 12.7217 3.15956 12.4406 3.44061C12.1596 3.72167 12.0012 4.10253 12 4.5V6" stroke="black" stroke-width="2" stroke-linecap="round" stroke-linejoin="round"/>
<path d="M26 14.5625V9C25.9977 8.20506 25.6809 7.44334 25.1188 6.88123C24.5567 6.31912 23.7949 6.00231 23 6H9C8.20506 6.00231 7.44334 6.31912 6.88123 6.88123C6.31912 7.44334 6.00231 8.20506 6 9V14.75" stroke="black" stroke-width="2" stroke-linecap="round" stroke-linejoin="round"/>
<path d="M16 11.475V24.7781" stroke="black" stroke-width="2" stroke-linecap="round" stroke-linejoin="round"/>
</svg>
